<?xml version="1.0" standalone="no"?>
<!DOCTYPE svg PUBLIC "-//W3C//DTD SVG 20010904//EN"
 "http://www.w3.org/TR/2001/REC-SVG-20010904/DTD/svg10.dtd">
<svg version="1.0" xmlns="http://www.w3.org/2000/svg"
 width="140.000000pt" height="140.000000pt" viewBox="0 0 140.000000 140.000000"
 preserveAspectRatio="xMidYMid meet">
<metadata>
Created by potrace 1.16, written by Peter Selinger 2001-2019
</metadata>
<g transform="translate(0.000000,140.000000) scale(0.100000,-0.100000)"
fill="#000000" stroke="none">
<path d="M0 647 l0 -647 700 0 700 0 0 41 0 41 -31 -26 c-27 -23 -39 -26 -102
-25 -48 1 -62 3 -42 8 l30 6 -24 24 c-17 17 -25 20 -31 11 -6 -9 -14 -6 -30
10 -16 16 -19 24 -10 30 9 6 6 14 -11 31 l-24 24 -3 -27 c-2 -19 -9 -26 -23
-25 -19 1 -28 27 -9 27 6 0 10 11 10 25 0 17 -6 25 -17 26 -14 0 -13 3 5 11
12 6 22 15 22 20 0 11 -17 10 -25 -2 -3 -5 -11 -10 -16 -10 -12 0 26 56 62 90
23 23 69 101 69 118 0 4 -15 -16 -34 -44 -65 -96 -170 -174 -301 -221 -64 -23
-209 -28 -288 -9 -72 17 -152 53 -206 94 -30 22 -35 23 -43 8 -5 -9 -18 -16
-28 -16 -23 0 -33 30 -28 86 l3 39 61 3 c51 2 63 0 68 -15 5 -11 1 -22 -9 -29
-14 -11 -12 -14 14 -33 17 -12 61 -36 98 -53 89 -41 238 -51 324 -23 64 21
147 61 167 81 7 8 23 19 34 25 11 6 17 17 14 24 -3 9 0 12 9 9 7 -3 18 3 24
14 6 11 17 27 25 34 20 20 55 92 77 157 37 110 16 310 -38 373 -9 10 -12 25
-8 37 3 11 1 29 -5 41 -9 17 -21 20 -70 20 -59 0 -73 8 -75 41 -1 12 4 15 19
11 19 -5 19 -4 7 11 -21 27 -145 84 -208 98 -72 14 -201 7 -268 -17 -150 -52
-268 -178 -315 -334 -19 -63 -22 -90 -17 -165 6 -89 26 -168 55 -213 11 -18
12 -25 2 -37 -22 -26 -39 -17 -65 35 -34 67 -55 160 -55 245 1 125 35 229 115
340 30 41 50 75 46 75 -5 0 -14 -7 -21 -15 -7 -8 -19 -15 -26 -15 -8 0 -14 -5
-14 -11 0 -5 5 -7 12 -3 7 4 8 3 4 -4 -4 -6 -13 -9 -22 -5 -8 3 -26 -5 -40
-17 -20 -20 -24 -21 -24 -7 0 9 3 17 8 17 23 1 32 18 23 43 -11 28 -36 36 -43
15 -3 -7 -13 -3 -27 11 -17 17 -20 25 -11 31 9 6 6 14 -10 30 -16 16 -24 19
-30 10 -6 -9 -14 -6 -30 10 -15 15 -19 25 -11 29 7 5 3 15 -14 31 l-25 23 0
-646z m793 426 c4 -2 7 -13 7 -24 0 -27 18 -59 32 -59 6 0 19 6 27 14 39 34
58 30 116 -25 59 -56 67 -81 39 -124 -20 -31 -12 -55 19 -55 49 0 60 -20 60
-105 -1 -84 -12 -105 -59 -105 -12 0 -27 -7 -34 -15 -9 -11 -8 -20 9 -44 31
-43 26 -62 -26 -112 -62 -59 -77 -64 -119 -38 -41 25 -64 14 -64 -30 0 -42
-17 -51 -101 -51 -83 0 -95 6 -101 54 -4 40 -31 56 -56 33 -36 -33 -75 -22
-126 35 -50 54 -54 81 -21 115 17 17 17 16 9 37 -4 9 -18 16 -34 16 -45 0 -60
23 -60 93 0 93 6 105 50 112 48 8 56 28 28 66 -22 30 -22 30 -3 65 25 47 83
94 116 94 14 0 34 -9 43 -19 25 -28 44 -16 53 32 8 38 12 43 43 48 34 7 137 1
153 -8z"/>
<path d="M662 1031 c-8 -5 -17 -24 -21 -42 -6 -29 -13 -36 -48 -49 -38 -13
-44 -12 -61 3 -26 23 -41 21 -74 -10 -34 -32 -34 -36 -7 -72 l21 -28 -21 -41
c-17 -33 -27 -41 -53 -44 -32 -3 -33 -4 -36 -54 l-3 -51 39 -7 c35 -5 42 -11
56 -46 15 -39 15 -42 -5 -69 l-21 -29 27 -36 c32 -42 37 -43 76 -15 28 20 30
20 69 3 34 -15 39 -22 42 -53 3 -36 3 -36 55 -39 l51 -3 7 39 c6 35 11 41 47
55 39 16 42 16 70 -5 29 -20 30 -20 56 -1 45 33 49 49 23 84 -23 31 -23 31 -5
70 16 32 25 40 56 45 41 7 52 30 42 83 -6 27 -11 31 -40 31 -29 0 -36 5 -55
41 l-21 42 21 28 c27 36 27 40 -9 74 l-31 29 -33 -18 c-29 -15 -39 -16 -74 -6
-35 11 -41 17 -46 50 -3 21 -13 41 -22 44 -22 9 -57 7 -72 -3z m-108 -177 c14
-15 26 -29 26 -33 0 -3 64 -6 142 -6 l143 0 3 -28 c4 -33 -42 -156 -64 -173
-12 -10 -12 -13 1 -24 32 -27 11 -70 -36 -70 -38 0 -55 24 -41 55 11 23 10 25
-14 25 -21 0 -24 -4 -19 -20 10 -31 -3 -57 -30 -62 -50 -10 -85 43 -49 73 13
11 13 14 0 21 -8 4 -24 38 -37 76 -28 87 -46 122 -75 147 -13 11 -24 26 -24
33 0 22 47 13 74 -14z"/>
<path d="M603 765 c2 -5 12 -34 22 -62 l19 -53 67 0 68 0 21 56 c11 31 19 58
18 59 -9 9 -218 9 -215 0z"/>
</g>
</svg>
